<svg version="1.1" id="Layer_1" xmlns="http://www.w3.org/2000/svg" xmlns:xlink="http://www.w3.org/1999/xlink" x="0px" y="0px"
	 width="100%" viewBox="0 0 192 192" enable-background="new 0 0 192 192" xml:space="preserve">
<path fill="#000000" opacity="1.000000" stroke="none" 
	d="
M1.000000,77.000000 
	C1.000000,51.333340 1.000000,26.166679 1.000000,1.000009 
	C63.666645,1.000000 126.333366,1.035656 188.999741,0.903233 
	C192.424377,0.895996 193.104294,1.575183 193.096848,5.000145 
	C192.963562,66.333176 192.963593,127.666649 193.096832,188.999680 
	C193.104279,192.424286 192.424957,193.104279 188.999893,193.096848 
	C127.666862,192.963562 66.333397,192.963608 5.000365,193.096832 
	C1.575866,193.104263 0.886615,192.426407 0.901194,188.999725 
	C1.059315,151.833694 1.000000,114.666718 1.000000,77.000000 
z"/>
<path fill="#62DCFC" opacity="1.000000" stroke="none" 
	d="
M187.933929,89.442230 
	C190.556702,94.544937 190.089752,99.754929 188.590057,104.346420 
	C187.369675,108.082787 183.486496,110.572502 180.540756,113.469910 
	C175.637756,118.292419 169.393112,120.260300 163.830078,123.615761 
	C163.138412,124.032959 162.409882,124.405457 161.662582,124.711006 
	C159.167923,125.730988 154.747742,126.387794 154.514023,127.767815 
	C153.841522,131.738647 152.112900,135.857590 153.108398,139.926987 
	C155.453522,149.513214 153.506119,158.853134 151.831711,168.183624 
	C151.026016,172.673248 142.700073,178.634628 138.059982,179.031372 
	C126.142204,180.050369 116.742226,174.485992 107.345200,168.207947 
	C104.964478,166.617386 103.098122,164.557358 100.768860,163.071289 
	C96.385818,160.274933 92.663864,163.580765 90.012573,165.817795 
	C81.557533,172.951706 72.082115,177.521698 61.393635,179.861481 
	C57.862080,180.634567 49.119492,177.411377 46.868397,173.722244 
	C40.162365,162.732285 39.061962,156.825943 40.849785,143.618713 
	C41.460274,139.108856 41.432537,134.536346 42.912373,130.140823 
	C43.531410,128.302109 42.010246,128.338867 40.708900,127.833290 
	C32.842827,124.777275 24.949387,121.730507 17.867706,117.015457 
	C14.998365,115.105019 13.182661,111.611511 10.351089,110.179466 
	C5.220173,107.584526 5.099962,103.197685 4.294453,98.723267 
	C3.380769,93.647949 5.802173,89.201378 8.404917,85.764778 
	C11.203921,82.069054 14.586543,78.206543 19.068148,76.066818 
	C26.027845,72.743935 32.672775,68.692497 40.296490,66.856819 
	C41.827503,66.488174 42.353607,65.492508 42.132980,63.474503 
	C41.332710,56.154545 39.586029,48.944897 39.925743,41.472229 
	C40.202488,35.384743 41.031448,28.961586 43.565289,23.989996 
	C45.825630,19.555031 50.789867,15.440332 57.211197,14.916258 
	C65.681473,14.224959 72.870934,17.545025 79.807770,21.486004 
	C84.016617,23.877150 87.803146,27.069489 91.579132,30.147564 
	C94.981140,32.920788 99.654900,32.947071 102.590302,29.855829 
	C109.238243,22.854925 117.637993,18.759136 126.671265,16.048359 
	C143.609131,10.965499 150.729446,22.231663 153.149506,34.928162 
	C154.962463,44.439610 153.027573,53.546364 151.749420,62.702732 
	C151.279312,66.070404 152.373779,66.299973 154.648438,67.047394 
	C162.354767,69.579575 169.619949,72.979256 176.331940,77.653763 
	C180.876663,80.818871 184.318146,84.897934 187.933929,89.442230 
z"/>
<path fill="#64DAFB" opacity="1.000000" stroke="none" 
	d="
M156.000000,149.077423 
	C156.000000,152.126556 156.000000,154.713516 156.000000,157.300491 
	C155.757156,157.294540 155.514328,157.288589 155.271484,157.282639 
	C155.271484,152.490768 155.271484,147.698914 155.271484,142.907043 
	C155.514328,142.884140 155.757156,142.861252 156.000000,142.838364 
	C156.000000,144.763992 156.000000,146.689636 156.000000,149.077423 
z"/>
<path fill="#64DAFB" opacity="1.000000" stroke="none" 
	d="
M38.022083,49.229591 
	C38.003548,45.095207 38.003548,41.376400 38.003548,37.657589 
	C38.291767,37.658867 38.579990,37.660149 38.868210,37.661430 
	C38.868210,41.707508 38.870991,45.753601 38.855824,49.799622 
	C38.855328,49.931313 38.671803,50.062317 38.573597,50.193642 
	C38.395939,50.010815 38.218277,49.827988 38.022083,49.229591 
z"/>
<path fill="#64DAFB" opacity="1.000000" stroke="none" 
	d="
M155.000183,46.590706 
	C155.000015,43.734200 155.000015,41.306423 155.000015,38.878643 
	C155.222565,38.879826 155.445114,38.881012 155.667664,38.882195 
	C155.667664,42.366291 155.667664,45.850388 155.667664,49.334480 
	C155.529953,49.343594 155.392242,49.352707 155.254532,49.361820 
	C155.169800,48.581024 155.085068,47.800228 155.000183,46.590706 
z"/>
<path fill="#64DAFB" opacity="1.000000" stroke="none" 
	d="
M38.000015,149.226288 
	C38.000031,147.843674 38.000031,146.887589 38.000031,145.931488 
	C38.215996,145.926849 38.431961,145.922211 38.647926,145.917572 
	C38.647926,149.050613 38.647926,152.183655 38.647926,155.743240 
	C37.525539,153.508942 38.215427,151.538940 38.000015,149.226288 
z"/>
<path fill="#64DAFB" opacity="1.000000" stroke="none" 
	d="
M60.838673,13.999979 
	C58.831280,13.810714 57.160385,14.436449 55.132198,13.252843 
	C58.499519,13.252843 61.351246,13.252843 64.381523,13.252843 
	C63.416412,14.520080 62.235497,13.764368 60.838673,13.999979 
z"/>
<path fill="#000000" opacity="1.000000" stroke="none" 
	d="
M115.503906,122.808411 
	C114.081726,125.366219 112.421158,126.160683 109.693710,126.085640 
	C101.214539,125.852341 92.724815,125.982819 84.239319,126.010696 
	C81.525566,126.019608 80.348358,125.391983 78.590103,122.446167 
	C75.354454,117.025070 72.506302,111.200279 68.556961,106.245102 
	C64.952507,101.722633 64.632065,97.824074 66.938362,92.441750 
	C69.617546,86.189209 73.897522,80.924789 76.539261,74.617531 
	C78.036560,71.042656 81.347244,67.078995 87.387634,67.806496 
	C94.275864,68.636116 101.344246,68.128265 108.327400,67.941833 
	C111.619423,67.853935 113.182465,68.716034 114.836296,72.035233 
	C118.315384,79.017662 122.674950,85.567139 126.340454,92.511795 
	C128.535202,96.669952 128.967865,100.360519 126.431007,103.978851 
	C122.297737,109.874107 119.625122,116.547295 115.503906,122.808411 
z"/>
<path fill="#000000" opacity="1.000000" stroke="none" 
	d="
M175.216339,90.706619 
	C181.969803,96.379150 181.473602,97.271942 175.593201,104.169830 
	C169.117523,111.765953 160.400864,114.649284 151.755920,118.149033 
	C149.375793,119.112587 148.714417,118.797264 147.940002,116.483330 
	C146.307617,111.605797 144.441696,106.798607 142.479904,102.041595 
	C140.887741,98.180809 141.922134,93.973228 143.374023,91.082352 
	C145.474274,86.900520 146.645447,82.397041 147.574371,78.182800 
	C148.486450,74.045059 150.119308,75.462189 151.918594,76.078712 
	C158.176300,78.222961 164.127411,81.079788 169.853394,84.396500 
	C172.271332,85.797073 174.128418,87.677032 175.216339,90.706619 
z"/>
<path fill="#000000" opacity="1.000000" stroke="none" 
	d="
M48.671463,108.771233 
	C47.536373,111.833839 45.314018,114.073463 45.898941,117.403091 
	C46.274902,119.543213 44.490013,119.151360 43.219395,118.649803 
	C33.736961,114.906654 24.151354,111.374306 17.000244,103.530495 
	C14.145626,100.399376 13.381800,97.993431 15.840776,93.625374 
	C21.764368,83.102867 32.307762,80.308899 42.102585,76.126434 
	C43.663269,75.460007 45.601315,75.447739 46.320900,78.456017 
	C47.809391,84.678749 50.193253,90.681458 51.893444,96.861435 
	C53.071106,101.142075 49.834610,104.559494 48.671463,108.771233 
z"/>
<path fill="#000000" opacity="1.000000" stroke="none" 
	d="
M106.819229,39.676758 
	C113.484001,31.396557 122.289337,27.174490 131.754898,24.152025 
	C135.831100,22.850449 141.551636,26.502268 142.722809,31.579201 
	C144.954590,41.253735 144.655518,50.981674 142.149826,60.664246 
	C141.587463,62.837364 141.255386,63.089088 138.995285,62.607796 
	C133.778076,61.496788 128.591507,60.078754 123.175629,59.936520 
	C120.841988,59.875233 118.502800,59.340942 117.225731,56.786598 
	C114.749702,51.834198 109.471558,49.181557 106.821709,44.337814 
	C106.029266,42.889286 104.271713,41.547485 106.819229,39.676758 
z"/>
<path fill="#000000" opacity="1.000000" stroke="none" 
	d="
M142.565613,139.920135 
	C142.999649,139.974670 143.880646,140.440414 143.869049,140.882828 
	C143.684128,147.947296 145.228683,155.169922 142.889053,162.039001 
	C140.574234,168.835266 135.901779,171.657913 129.372787,169.041916 
	C120.766197,165.593445 112.306358,162.081177 106.618469,154.188660 
	C105.859550,153.135590 104.736511,152.617508 106.269928,151.153015 
	C110.986176,146.648727 115.365082,141.894867 118.266190,135.866333 
	C118.829849,134.695053 121.632942,134.145996 123.420677,134.106461 
	C128.357224,133.997284 133.221115,133.143555 137.856033,131.833527 
	C142.257065,130.589600 142.592972,132.904892 142.974564,135.856476 
	C143.101242,136.836349 142.969284,137.849655 142.774704,139.212372 
	C142.318680,144.797501 142.699677,150.029495 142.519669,152.969086 
	C142.560669,150.274994 142.392548,145.294250 142.565613,139.920135 
z"/>
<path fill="#000000" opacity="1.000000" stroke="none" 
	d="
M60.934826,170.000305 
	C54.634502,169.891815 51.432472,167.049911 50.294762,158.190903 
	C49.233486,149.927048 49.595413,141.477188 51.878891,133.257004 
	C52.367390,131.498489 52.250011,131.057205 54.535816,131.626282 
	C60.341915,133.071777 66.360596,134.517776 72.270409,134.426422 
	C77.142929,134.351120 76.542694,138.662659 78.263229,140.527206 
	C81.119339,143.622345 83.372475,147.591202 86.351051,150.850800 
	C87.299110,151.888290 88.806137,152.630981 87.113129,154.450836 
	C79.996437,162.100632 72.026634,168.259781 60.934826,170.000305 
z"/>
<path fill="#000000" opacity="1.000000" stroke="none" 
	d="
M51.673843,34.439087 
	C53.172832,27.094198 55.834858,23.462549 59.766552,24.105854 
	C65.991379,25.124369 71.854416,27.256067 77.121658,30.969040 
	C79.678398,32.771336 81.263039,35.522079 84.757484,36.587673 
	C88.335991,37.678913 87.042183,46.251278 82.884865,48.955788 
	C80.269150,50.657425 78.012650,53.114803 77.410934,55.614334 
	C76.406342,59.787430 73.260117,59.626934 70.749413,59.851955 
	C66.191086,60.260494 61.774193,61.296227 57.313786,62.088543 
	C51.945297,63.042168 51.427559,62.847160 51.008495,57.339806 
	C50.945629,56.513641 50.993954,55.679012 50.955948,54.417267 
	C51.361450,47.620815 50.381489,41.211254 51.673843,34.439087 
z"/>
<path fill="#000000" opacity="1.000000" stroke="none" 
	d="
M103.276855,135.999054 
	C104.321320,136.271561 106.486450,135.927826 105.045235,137.114944 
	C103.343163,138.516907 102.346245,139.883499 101.420799,141.854263 
	C100.392784,144.043427 98.273247,144.883881 95.660652,143.214966 
	C92.863876,141.428391 90.618752,139.133408 87.588516,135.998672 
	C93.210747,135.998672 98.032730,135.998672 103.276855,135.999054 
z"/>
<path fill="#000000" opacity="1.000000" stroke="none" 
	d="
M132.144531,113.590378 
	C134.833374,110.579872 136.214478,113.109795 137.165314,114.730377 
	C138.358383,116.763863 138.866852,119.199013 139.773682,121.750343 
	C135.227097,122.161278 131.085785,124.432487 126.043007,123.786728 
	C129.169113,120.865143 131.303162,117.817032 132.144531,113.590378 
z"/>
<path fill="#000000" opacity="1.000000" stroke="none" 
	d="
M136.120346,80.949951 
	C130.528641,81.801712 131.028107,76.780968 129.070297,74.322411 
	C128.495880,73.601082 128.719879,72.243973 128.580200,71.178146 
	C140.054428,70.575630 140.890823,71.602791 136.120346,80.949951 
z"/>
<path fill="#000000" opacity="1.000000" stroke="none" 
	d="
M95.151123,58.000961 
	C92.629974,58.001049 90.567375,58.001049 88.504784,58.001049 
	C91.677521,55.485352 94.043304,52.831070 95.019508,49.026424 
	C98.404968,50.938522 99.814026,54.930676 103.808418,55.447857 
	C104.240242,55.503769 104.857216,56.426533 104.868874,56.958584 
	C104.894112,58.109531 103.850861,57.983040 103.060455,57.988979 
	C100.576973,58.007637 98.093292,57.998959 95.151123,58.000961 
z"/>
<path fill="#000000" opacity="1.000000" stroke="none" 
	d="
M63.001366,77.966690 
	C61.137775,78.621788 60.720066,82.426659 58.441048,80.622414 
	C56.493202,79.080360 55.260868,76.480698 55.091614,73.942078 
	C54.850521,70.326057 58.100372,72.784195 59.502411,71.830383 
	C61.241955,70.646965 63.676765,70.097534 64.761681,71.873566 
	C65.866707,73.682518 65.006958,76.061325 63.001366,77.966690 
z"/>
<path fill="#000000" opacity="1.000000" stroke="none" 
	d="
M56.926865,116.013054 
	C58.533833,114.824524 57.787617,111.478836 60.257557,112.240112 
	C62.963837,113.074226 62.073441,116.835342 63.896423,118.829788 
	C64.580208,119.577896 63.734562,121.430382 64.787933,122.571754 
	C55.732311,123.779343 54.380508,122.700073 56.926865,116.013054 
z"/>
<path fill="#64DAFB" opacity="1.000000" stroke="none" 
	d="
M51.654320,34.167255 
	C51.806702,40.567108 51.780884,47.123417 51.338062,53.832981 
	C50.921055,53.986237 50.997707,54.031891 51.030075,54.062584 
	C49.810802,48.087883 50.788479,42.020222 50.757515,35.550072 
	C51.083927,34.819633 51.256523,34.556267 51.654320,34.167255 
z"/>
<path fill="#000000" opacity="1.000000" stroke="none" 
	d="
M50.556389,35.274681 
	C50.974438,41.124542 50.990547,47.135277 51.034550,53.619644 
	C48.706585,47.973957 50.477932,41.653782 50.556389,35.274681 
z"/>
<path fill="#61DBFB" opacity="1.000000" stroke="none" 
	d="
M82.673981,86.834976 
	C94.375786,74.837242 108.960693,78.020523 114.137520,93.127357 
	C116.180122,99.088036 114.603798,105.077797 111.241356,108.574516 
	C106.901711,113.087479 100.611626,116.569588 93.223694,114.734650 
	C89.708923,113.861679 86.984344,111.301003 83.380394,110.589111 
	C82.491440,110.413513 81.626099,108.681076 81.265182,107.506058 
	C79.140533,100.588707 77.785477,93.660233 82.673981,86.834976 
z"/>
<path fill="#64DAFB" opacity="1.000000" stroke="none" 
	d="
M143.000000,48.628628 
	C142.987930,49.895733 143.012512,50.719276 142.942734,51.534744 
	C142.920212,51.797867 142.649628,52.039757 142.242706,52.691410 
	C142.242706,47.121998 142.242706,41.955891 142.242706,36.789783 
	C142.495132,36.784637 142.747574,36.779488 143.000000,36.774342 
	C143.000000,40.576870 143.000000,44.379402 143.000000,48.628628 
z"/>
<path fill="#64DAFB" opacity="1.000000" stroke="none" 
	d="
M142.549454,139.539825 
	C143.608505,145.730881 142.632492,151.951111 142.147644,158.183014 
	C142.147644,152.241791 142.147644,146.300552 142.370728,139.968201 
	C142.593826,139.577057 142.565002,139.559860 142.549454,139.539825 
z"/>
<path fill="#64DAFB" opacity="1.000000" stroke="none" 
	d="
M51.999836,154.516205 
	C51.924072,155.739975 51.848446,156.527985 51.772820,157.315979 
	C51.607178,157.310989 51.441532,157.306000 51.275890,157.301010 
	C51.275890,152.490738 51.275890,147.680450 51.275890,142.870178 
	C51.517254,142.862381 51.758614,142.854599 51.999977,142.846817 
	C51.999977,146.591370 51.999977,150.335907 51.999836,154.516205 
z"/>
</svg>